<svg xmlns="http://www.w3.org/2000/svg" viewBox="0 0 512 512" width="512" height="512">
  <rect width="512" height="512" fill="#ffcf24"/>
  <rect x="26" y="26" width="460" height="460" fill="none" stroke="#141210" stroke-width="16"/>
  <!-- masthead bar -->
  <rect x="52" y="60" width="408" height="70" fill="#141210"/>
  <text x="256" y="114" text-anchor="middle" font-family="Impact, sans-serif" font-size="52" fill="#f7f1e1" letter-spacing="2">THE DAILY</text>
  <!-- penguin -->
  <g transform="translate(160,170)">
    <path d="M96 8 C40 8 20 70 20 140 C20 208 56 236 96 236 C136 236 172 208 172 140 C172 70 152 8 96 8 Z" fill="#141210"/>
    <path d="M96 52 C62 52 46 96 46 148 C46 196 70 218 96 218 C122 218 146 196 146 148 C146 96 130 52 96 52 Z" fill="#fffaf0"/>
    <circle cx="78" cy="104" r="12" fill="#fffaf0" stroke="#141210" stroke-width="4"/>
    <circle cx="114" cy="104" r="12" fill="#fffaf0" stroke="#141210" stroke-width="4"/>
    <circle cx="80" cy="106" r="5" fill="#141210"/>
    <circle cx="116" cy="106" r="5" fill="#141210"/>
    <path d="M84 120 L108 120 L96 138 Z" fill="#ff8a1f" stroke="#141210" stroke-width="3"/>
    <rect x="66" y="88" width="30" height="20" rx="6" fill="#2ea6e6" stroke="#141210" stroke-width="4"/>
    <rect x="100" y="88" width="30" height="20" rx="6" fill="#2ea6e6" stroke="#141210" stroke-width="4"/>
  </g>
  <text x="256" y="452" text-anchor="middle" font-family="Impact, sans-serif" font-size="52" fill="#141210" letter-spacing="3">BITE</text>
</svg>
